<svg xmlns="http://www.w3.org/2000/svg" viewBox="0 0 1000 800" width="1000" height="800" fill="none">
  <defs>
    <linearGradient id="airpods-4-screen" x1="0" y1="0" x2="1" y2="1">
      <stop offset="0" stop-color="#3b2d6b"/><stop offset="0.55" stop-color="#a78bfa"/><stop offset="1" stop-color="#f1e9ff"/>
    </linearGradient>
    <radialGradient id="airpods-4-glow" cx="0.3" cy="0.75" r="0.6">
      <stop offset="0" stop-color="#f1e9ff" stop-opacity="0.9"/><stop offset="1" stop-color="#f1e9ff" stop-opacity="0"/>
    </radialGradient>
    <linearGradient id="airpods-4-shine" x1="0" y1="0" x2="0" y2="1">
      <stop offset="0" stop-color="#fff" stop-opacity="0.55"/><stop offset="0.5" stop-color="#fff" stop-opacity="0.05"/><stop offset="1" stop-color="#000" stop-opacity="0.12"/>
    </linearGradient>
    <filter id="airpods-4-shadow" x="-20%" y="-20%" width="140%" height="160%">
      <feGaussianBlur stdDeviation="18"/>
    </filter>
    
    <linearGradient id="airpods-4-white" x1="0" y1="0" x2="1" y2="1">
      <stop offset="0" stop-color="#ffffff"/><stop offset="0.6" stop-color="#ececec"/><stop offset="1" stop-color="#cfcfd2"/>
    </linearGradient>
  </defs>
    <ellipse cx="500" cy="700" rx="300" ry="26" fill="#000" fill-opacity="0.26" filter="url(#airpods-4-shadow)"/>
    <rect x="300" y="240" width="400" height="440" rx="110" fill="url(#airpods-4-white)"/>
    <rect x="300" y="240" width="400" height="440" rx="110" fill="url(#airpods-4-shine)"/>
    <path d="M300 430 Q500 448 700 430" stroke="#000" stroke-opacity="0.16" stroke-width="3"/>
    <circle cx="500" cy="500" r="7" fill="#a78bfa" fill-opacity="0.9"/>
    <circle cx="500" cy="500" r="14" fill="#a78bfa" fill-opacity="0.25"/>
    
    <g transform="translate(255 330) scale(1 1)">
      <rect x="-16" y="26" width="32" height="150" rx="16" fill="url(#airpods-4-white)"/>
      <ellipse cx="0" cy="0" rx="46" ry="54" fill="url(#airpods-4-white)"/>
      <ellipse cx="-24" cy="4" rx="16" ry="20" fill="#0d0d0f" fill-opacity="0.55"/>
      <rect x="-16" y="26" width="32" height="150" rx="16" fill="url(#airpods-4-shine)"/>
    </g>
    
    <g transform="translate(745 330) scale(-1 1)">
      <rect x="-16" y="26" width="32" height="150" rx="16" fill="url(#airpods-4-white)"/>
      <ellipse cx="0" cy="0" rx="46" ry="54" fill="url(#airpods-4-white)"/>
      <ellipse cx="-24" cy="4" rx="16" ry="20" fill="#0d0d0f" fill-opacity="0.55"/>
      <rect x="-16" y="26" width="32" height="150" rx="16" fill="url(#airpods-4-shine)"/>
    </g></svg>