<svg xmlns="http://www.w3.org/2000/svg" viewBox="0 0 1200 760" width="1200" height="760" fill="none">
  <defs>
    <linearGradient id="mac-studio-m2-max-screen" x1="0" y1="0" x2="1" y2="1">
      <stop offset="0" stop-color="#2b1a3d"/><stop offset="0.55" stop-color="#7b5ea7"/><stop offset="1" stop-color="#e4d9f5"/>
    </linearGradient>
    <radialGradient id="mac-studio-m2-max-glow" cx="0.3" cy="0.75" r="0.6">
      <stop offset="0" stop-color="#e4d9f5" stop-opacity="0.9"/><stop offset="1" stop-color="#e4d9f5" stop-opacity="0"/>
    </radialGradient>
    <linearGradient id="mac-studio-m2-max-shine" x1="0" y1="0" x2="0" y2="1">
      <stop offset="0" stop-color="#fff" stop-opacity="0.55"/><stop offset="0.5" stop-color="#fff" stop-opacity="0.05"/><stop offset="1" stop-color="#000" stop-opacity="0.12"/>
    </linearGradient>
    <filter id="mac-studio-m2-max-shadow" x="-20%" y="-20%" width="140%" height="160%">
      <feGaussianBlur stdDeviation="18"/>
    </filter>
    
    <linearGradient id="mac-studio-m2-max-metal" x1="0" y1="0" x2="0" y2="1">
      <stop offset="0" stop-color="#e6e7e9"/><stop offset="0.5" stop-color="#c3c5c9"/><stop offset="1" stop-color="#9c9ea3"/>
    </linearGradient>
  </defs>
    <ellipse cx="600" cy="680" rx="280" ry="32" fill="#000" fill-opacity="0.32" filter="url(#mac-studio-m2-max-shadow)"/>
    <rect x="290" y="110" width="620" height="540" rx="86" fill="url(#mac-studio-m2-max-metal)"/>
    <rect x="290" y="110" width="620" height="390" rx="86" fill="url(#mac-studio-m2-max-shine)"/>
    <rect x="290" y="500" width="620" height="150" fill="#000" fill-opacity="0.16"/>
    <rect x="290" y="500" width="620" height="150" rx="40" fill="#000" fill-opacity="0.1"/>
    <rect x="490" y="568" width="34" height="14" rx="7" fill="#1a1a1c"/>
    <rect x="540" y="568" width="34" height="14" rx="7" fill="#1a1a1c"/>
    <rect x="620" y="570" width="70" height="10" rx="3" fill="#1a1a1c"/>
    <circle cx="340" cy="575" r="4" fill="#fff" fill-opacity="0.9"/></svg>