<svg xmlns="http://www.w3.org/2000/svg" viewBox="0 0 1200 780" width="1200" height="780" fill="none">
  <defs>
    <linearGradient id="macbook-air-15-m4-screen" x1="0" y1="0" x2="1" y2="1">
      <stop offset="0" stop-color="#0d2b4c"/><stop offset="0.55" stop-color="#5aa9ff"/><stop offset="1" stop-color="#e6f3ff"/>
    </linearGradient>
    <radialGradient id="macbook-air-15-m4-glow" cx="0.3" cy="0.75" r="0.6">
      <stop offset="0" stop-color="#e6f3ff" stop-opacity="0.9"/><stop offset="1" stop-color="#e6f3ff" stop-opacity="0"/>
    </radialGradient>
    <linearGradient id="macbook-air-15-m4-shine" x1="0" y1="0" x2="0" y2="1">
      <stop offset="0" stop-color="#fff" stop-opacity="0.55"/><stop offset="0.5" stop-color="#fff" stop-opacity="0.05"/><stop offset="1" stop-color="#000" stop-opacity="0.12"/>
    </linearGradient>
    <filter id="macbook-air-15-m4-shadow" x="-20%" y="-20%" width="140%" height="160%">
      <feGaussianBlur stdDeviation="18"/>
    </filter>
    
    <linearGradient id="macbook-air-15-m4-metal" x1="0" y1="0" x2="0" y2="1">
      <stop offset="0" stop-color="#dbe6f1"/><stop offset="0.5" stop-color="#b7c9db"/><stop offset="1" stop-color="#8ea6bd"/>
    </linearGradient>
  </defs>
    <ellipse cx="600" cy="728" rx="505" ry="22" fill="#000" fill-opacity="0.28" filter="url(#macbook-air-15-m4-shadow)"/>
    <rect x="100" y="40" width="1000" height="630" rx="34" fill="url(#macbook-air-15-m4-metal)"/>
    <rect x="110" y="50" width="980" height="610" rx="26" fill="#050506"/>
    <rect x="124" y="64" width="952" height="582" rx="14" fill="url(#macbook-air-15-m4-screen)"/>
    <rect x="124" y="64" width="952" height="582" rx="14" fill="url(#macbook-air-15-m4-glow)"/>
    <path d="M554 50 h92 v20 a10 10 0 0 1 -10 10 h-72 a10 10 0 0 1 -10 -10 z" fill="#050506"/>
    <rect x="55" y="668" width="1090" height="30" rx="12" fill="url(#macbook-air-15-m4-metal)"/>
    <rect x="55" y="668" width="1090" height="30" rx="12" fill="url(#macbook-air-15-m4-shine)"/>
    <rect x="530" y="668" width="140" height="7" rx="3.5" fill="#000" fill-opacity="0.35"/></svg>